ffmpeg version 88ea8cc Copyright (c) 2000-2021 the FFmpeg developers
  built with gcc 13 (Ubuntu 13.2.0-23ubuntu4)
  configuration: --prefix=/home/hi/ffmpeg-4.4.2/build --extra-cflags='-O0 -g3 -Wno-deprecated-declarations' --enable-shared --disable-static --enable-small --enable-gpl --enable-libx264 --enable-libx265 --enable-protocol=tcp --enable-protocol=udp --enable-protocol=rtp --enable-demuxer=rtsp --disable-doc --disable-htmlpages --disable-manpages --disable-podpages --disable-txtpages --disable-ffplay --disable-ffprobe --disable-avdevice --disable-swresample --disable-postproc --enable-protocol=tcp --enable-protocol=udp --enable-protocol=rtp --enable-demuxer=rtsp --disable-asm --disable-mmx --disable-sse --disable-avx --disable-vfp --disable-neon --disable-inline-asm --disable-x86asm --disable-mipsdsp --enable-debug=3 --disable-optimizations --ignore-tests=TESTS
  libavutil      56. 70.100 / 56. 70.100
  libavcodec     58.134.100 / 58.134.100
  libavformat    58. 76.100 / 58. 76.100
  libavfilter     7.110.100 /  7.110.100
  libswscale      5.  9.100 /  5.  9.100
nal_unit_type:32
nal_unit_type:33
nal_unit_type:34
nal_unit_type:39
nal_unit_type:20
m:0
n:56
m:15
n:48
m:-5
n:72
m:-5
n:88
m:0
n:88
m:0
n:64
m:0
n:64
m:0
n:64
m:0
n:64
m:0
n:64
m:0
n:64
m:0
n:64
m:0
n:64
m:10
n:48
m:0
n:64
m:0
n:64
m:0
n:64
m:10
n:48
m:-30
n:104
m:-5
n:72
m:0
n:64
m:0
n:64
m:0
n:64
m:0
n:64
m:0
n:64
m:0
n:64
m:0
n:64
m:0
n:64
m:0
n:64
m:0
n:64
m:0
n:64
m:0
n:64
m:0
n:64
m:0
n:64
m:0
n:64
m:0
n:64
m:0
n:64
m:0
n:56
m:-5
n:64
m:-5
n:64
m:-15
n:104
m:-5
n:88
m:-20
n:96
m:-5
n:64
m:10
n:32
m:0
n:64
m:0
n:64
m:-5
n:72
m:-5
n:72
m:-5
n:72
m:-5
n:72
m:-5
n:72
m:-5
n:72
m:-15
n:96
m:-15
n:96
m:-10
n:80
m:-10
n:88
m:-5
n:80
m:0
n:56
m:-10
n:88
m:-10
n:104
m:-5
n:80
m:-15
n:88
m:-15
n:104
m:-5
n:104
m:-10
n:104
m:-15
n:104
m:-25
n:104
m:-15
n:80
m:-10
n:72
m:-30
n:104
m:-15
n:96
m:-15
n:96
m:-10
n:80
m:-10
n:88
m:-5
n:80
m:0
n:56
m:-10
n:88
m:-10
n:104
m:-5
n:80
m:-15
n:88
m:-15
n:104
m:-5
n:104
m:-10
n:104
m:-15
n:104
m:-25
n:104
m:-15
n:80
m:-10
n:72
m:-30
n:104
m:-20
n:72
m:5
n:72
m:-5
n:32
m:-5
n:88
m:-15
n:104
m:-15
n:104
m:-10
n:88
m:-15
n:96
m:-15
n:96
m:-20
n:96
m:-10
n:80
m:-15
n:80
m:-10
n:80
m:-15
n:72
m:-10
n:88
m:-5
n:88
m:10
n:8
m:0
n:56
m:-10
n:88
m:-15
n:72
m:-10
n:88
m:-5
n:88
m:10
n:8
m:0
n:56
m:-10
n:88
m:-15
n:72
m:-10
n:88
m:-5
n:88
m:10
n:8
m:0
n:56
m:-10
n:88
m:-5
n:80
m:-5
n:72
m:10
n:32
m:10
n:32
m:0
n:48
m:-5
n:48
m:0
n:48
m:-5
n:48
m:0
n:56
m:-5
n:48
m:-5
n:72
m:-15
n:104
m:-5
n:48
m:-5
n:72
m:-15
n:104
m:-5
n:88
m:-15
n:104
m:-5
n:80
m:-20
n:80
m:-5
n:56
m:-5
n:64
m:-5
n:80
m:0
n:48
m:-5
n:64
m:-5
n:72
m:0
n:56
m:-25
n:64
m:0
n:24
m:-20
n:80
m:-5
n:72
m:-15
n:72
m:-10
n:64
m:0
n:48
m:-5
n:80
m:10
n:8
m:5
n:32
m:10
n:32
m:-5
n:80
m:25
n:8
m:-10
n:64
m:15
n:24
m:-5
n:64
m:0
n:56
m:-5
n:48
m:5
n:40
m:0
n:48
m:0
n:48
m:0
n:64
m:0
n:64
m:0
n:64
m:0
n:64
m:0
n:64
m:0
n:64
m:0
n:64
m:0
n:64
m:0
n:64
m:0
n:64
m:0
n:64
m:0
n:64
m:-45
n:-16
m:-45
n:-16
m:-45
n:-16
m:-45
n:-16
m:-45
n:-16
m:-45
n:-16
m:-45
n:-16
m:-45
n:-16
m:-45
n:-16
m:-45
n:-16
m:-45
n:-16
m:-45
n:-16
m:-45
n:-16
m:-45
n:-16
m:-45
n:-16
m:-45
n:-16
m:-45
n:-16
m:-45
n:-16
m:-45
n:-16
m:-45
n:-16
Input #0, hevc, from './demo_10_frames.h265':
  Duration: N/A, bitrate: N/A
  Stream #0:0: Video: hevc, yuv420p(tv, bt709), 714x624, 30 fps, 30 tbr, 1200k tbn, 30 tbc
Stream mapping:
  Stream #0:0 -> #0:0 (hevc (native) -> rawvideo (native))
Press [q] to stop, [?] for help
nal_unit_type:32
nal_unit_type:33
nal_unit_type:34
nal_unit_type:39
nal_unit_type:20
m:0
n:56
m:15
n:48
m:-5
n:72
m:-5
n:88
m:0
n:88
m:0
n:64
m:0
n:64
m:0
n:64
m:0
n:64
m:0
n:64
m:0
n:64
m:0
n:64
m:0
n:64
m:10
n:48
m:0
n:64
m:0
n:64
m:0
n:64
m:10
n:48
m:-30
n:104
m:-5
n:72
m:0
n:64
m:0
n:64
m:0
n:64
m:0
n:64
m:0
n:64
m:0
n:64
m:0
n:64
m:0
n:64
m:0
n:64
m:0
n:64
m:0
n:64
m:0
n:64
m:0
n:64
m:0
n:64
m:0
n:64
m:0
n:64
m:0
n:64
m:0
n:56
m:-5
n:64
m:-5
n:64
m:-15
n:104
m:-5
n:88
m:-20
n:96
m:-5
n:64
m:10
n:32
m:0
n:64
m:0
n:64
m:-5
n:72
m:-5
n:72
m:-5
n:72
m:-5
n:72
m:-5
n:72
m:-5
n:72
m:-15
n:96
m:-15
n:96
m:-10
n:80
m:-10
n:88
m:-5
n:80
m:0
n:56
m:-10
n:88
m:-10
n:104
m:-5
n:80
m:-15
n:88
m:-15
n:104
m:-5
n:104
m:-10
n:104
m:-15
n:104
m:-25
n:104
m:-15
n:80
m:-10
nal_unit_type:1
n:72
m:-30
n:104
m:-15
n:96
m:-15
n:96
m:-10
n:80
m:-10
n:88
m:-5
n:80
m:0
n:56
m:-10
n:88
m:-10
n:104
m:-5
n:80
m:-15
n:88
m:-15
n:104
m:-5
n:104
m:-10
n:104
m:-15
n:104
m:-25
n:104
m:-15
n:80
m:-10
n:72
m:-30
n:104
m:-20
n:72
m:5
n:72
m:-5
n:32
m:-5
n:88
m:-15
n:104
m:-15
n:104
m:-10
n:88
m:-15
n:96
m:-15
n:96
m:-20
n:96
m:-10
n:80
m:-15
n:80
m:-10
n:80
m:-15
n:72
m:-10
n:88
m:-5
n:88
m:10
n:8
m:0
n:56
m:-10
n:88
m:-15
n:72
m:-10
n:88
m:-5
n:88
m:10
n:8
m:0
n:56
m:-10
n:88
m:-15
n:72
m:-10
n:88
m:-5
n:88
m:10
n:8
m:0
n:56
m:-10
n:88
m:-5
n:80
m:-5
n:72
m:10
n:32
m:10
n:32
m:0
n:48
m:-5
n:48
m:0
n:48
m:-5
n:48
m:0
n:56
m:-5
n:48
m:-5
n:72
m:-15
n:104
m:-5
n:48
m:-5
n:72
m:-15
n:104
m:-5
n:88
m:-15
n:104
m:-5
n:80
m:-20
n:80
m:-5
n:56
m:-5
n:64
m:-5
n:80
m:0
n:48
m:-5
n:64
m:-5
n:72
m:0
n:56
m:-25
n:64
m:0
n:24
m:-20
n:80
m:-5
n:72
m:-15
n:72
m:-10
n:64
m:0
n:48
m:-5
n:80
m:10
n:8
m:5
n:32
m:10
n:32
m:-5
n:80
m:25
n:8
m:-10
n:64
m:15
n:24
m:-5
n:64
m:0
n:56
m:-5
n:48
m:5
n:40
m:0
n:48
m:0
n:48
m:0
n:64
m:0
n:64
m:0
n:64
m:0
n:64
m:0
n:64
m:0
n:64
m:0
n:64
m:0
n:64
m:0
n:64
m:0
n:64
m:0
n:64
m:0
n:64
m:-45
n:-16
m:-45
n:-16
m:-45
n:-16
m:-45
n:-16
m:-45
n:-16
m:-45
n:-16
m:-45
n:-16
m:-45
n:-16
m:-45
n:-16
m:-45
n:-16
m:-45
n:-16
m:-45
n:-16
m:-45
n:-16
m:-45
n:-16
m:-45
n:-16
m:-45
n:-16
m:-45
n:-16
m:-45
n:-16
m:-45
n:-16
m:-45
n:-16
m:0
n:56
m:10
n:56
m:-15
n:72
m:-5
n:72
m:-10
n:96
m:0
n:64
m:15
n:24
m:10
n:56
m:15
n:56
m:0
n:64
m:0
n:64
m:0
n:64
m:0
n:24
m:0
n:64
m:-5
n:72
m:0
n:64
m:0
n:64
m:0
n:64
m:0
n:48
m:-5
n:72
m:-15
n:96
m:-10
n:64
m:-20
n:104
m:-25
n:104
m:-30
n:104
m:-40
n:104
m:-40
n:104
m:0
n:56
m:0
n:56
m:0
n:56
m:0
n:56
m:-5
n:80
m:15
n:32
m:-5
n:80
m:15
n:32
m:5
n:48
m:-25
n:104
m:-10
n:80
m:-5
n:64
m:-20
n:96
m:0
n:56
m:-15
n:104
m:0
n:24
m:-15
n:72
m:5
n:40
m:0
n:64
m:0
n:64
m:-5
n:72
m:-5
n:72
m:-5
n:72
m:-5
n:72
m:-5
n:72
m:-5
n:72
m:-10
n:88
m:-15
n:96
m:-20
n:96
m:-15
n:96
m:-20
n:104
m:-25
n:104
m:-10
n:88
m:-15
n:104
m:-15
n:96
m:-25
n:96
m:-15
n:96
m:-15
n:104
m:-15
n:104
m:-20
n:104
m:-20
n:96
m:-15
n:80
m:-10
n:72
m:-15
n:80
m:-10
n:88
m:-15
n:96
m:-20
n:96
m:-15
n:96
m:-20
n:104
m:-25
n:104
m:-10
n:88
m:-15
n:104
m:-15
n:96
m:-25
n:96
m:-15
n:96
m:-15
n:104
m:-15
n:104
m:-20
n:104
m:-20
n:96
m:-15
n:80
m:-10
n:72
m:-15
n:80
m:-10
n:56
m:-5
n:80
m:-30
n:88
m:0
n:64
m:0
n:72
m:0
n:64
m:-5
n:72
m:0
n:56
m:-5
n:72
m:-10
n:72
m:-10
n:72
m:-30
n:104
m:0
n:56
m:5
n:32
m:10
n:40
m:-5
n:80
m:-5
n:48
m:0
n:56
m:0
n:64
m:5
n:32
m:10
n:40
m:-5
n:80
m:-5
n:48
m:0
n:56
m:0
n:64
m:5
n:32
m:10
n:40
m:-5
n:80
m:-5
n:48
m:0
n:56
m:0
n:64
m:5
n:64
m:0
n:56
m:-10
n:72
m:-10
n:72
m:-15
n:72
m:-10
n:56
m:-15
n:72
m:-10
n:56
m:5
n:40
m:0
n:40
m:10
n:40
m:-5
n:80
m:0
n:40
m:10
n:40
m:-5
n:80
m:-5
n:80
m:-5
n:80
m:0
n:64
m:15
n:16
m:15
n:16
m:5
n:40
m:0
n:64
m:0
n:48
m:5
n:40
m:10
n:32
m:10
n:32
m:-5
n:32
m:0
n:24
m:-5
n:48
m:0
n:56
m:-10
n:56
m:-5
n:48
m:-5
n:56
m:5
n:56
m:15
n:0
m:5
n:32
m:5
n:40
m:0
n:64
m:5
n:40
m:-5
n:56
m:10
n:32
m:-15
n:72
m:5
n:40
m:-20
n:72
m:-10
n:64
m:-15
n:72
m:5
n:40
m:0
n:64
m:0
n:64
m:0
n:64
m:0
n:64
m:0
n:64
m:0
n:64
m:0
n:64
m:0
n:64
m:0
n:64
m:0
n:64
m:0
n:64
m:0
n:64
m:-45
n:-16
m:-45
n:-16
m:-45
n:-16
m:-45
n:-16
m:-45
n:-16
m:-45
n:-16
m:-45
n:-16
m:-45
n:-16
m:-45
n:-16
m:-45
n:-16
m:-45
n:-16
m:-45
n:-16
m:-45
n:-16
m:-45
n:-16
m:-45
n:-16
m:-45
n:-16
m:-45
n:-16
m:-45
n:-16
m:-45
n:-16
m:-45
n:-16
nal_unit_type:1
m:0
n:56
m:5
n:-16
m:-15
n:72
m:-5
n:72
m:-10
n:96
m:0
n:64
m:15
n:24
m:10
n:56
m:15
n:56
m:0
n:64
m:0
n:64
m:0
n:64
m:-5
n:32
m:0
n:64
m:-5
n:72
m:0
n:64
m:0
n:64
m:10
n:40
m:0
n:48
m:-5
n:72
m:0
n:64
m:-5
n:56
m:-20
n:104
m:-25
n:104
m:-30
n:104
m:-40
n:104
m:-40
n:104
m:0
n:56
m:0
n:56
m:0
n:56
m:0
n:56
m:5
n:56
m:15
n:32
m:5
n:56
m:15
n:32
m:5
n:48
m:-25
n:104
m:25
n:-16
m:5
n:40
m:-10
n:64
m:0
n:56
m:-15
n:104
m:0
n:24
m:-20
n:80
m:5
n:40
m:0
n:64
m:0
n:64
m:-5
n:72
m:-5
n:72
m:-5
n:72
m:-5
n:72
m:-5
n:72
m:-5
n:72
m:-10
n:88
m:-15
nal_unit_type:0
n:96
m:-10
n:80
m:-15
n:96
m:-20
n:104
m:-20
n:96
m:-10
n:88
m:-15
n:104
m:-15
n:104
m:-25
n:104
m:-10
n:88
m:-10
n:96
m:-15
n:104
m:-15
n:104
m:-25
n:104
m:-15
n:80
m:-10
n:72
m:-20
n:88
m:-10
n:88
m:-15
n:96
m:-10
n:80
m:-15
n:96
m:-20
n:104
m:-20
n:96
m:-10
n:88
m:-15
n:104
m:-15
n:104
m:-25
n:104
m:-10
n:88
m:-10
n:96
m:-15
n:104
m:-15
n:104
m:-25
n:104
m:-15
n:80
m:-10
n:72
m:-20
n:88
m:-10
n:56
m:-5
n:80
m:-30
n:88
m:0
n:64
m:5
n:64
m:0
n:64
m:-5
n:72
m:0
n:56
m:-5
n:72
m:-10
n:72
m:-10
n:72
m:-30
n:104
m:-10
n:80
m:5
n:32
m:10
n:40
m:-5
n:80
m:-5
n:48
m:0
n:56
m:0
n:64
m:5
n:32
m:10
n:40
m:-5
n:80
m:-5
n:48
m:0
n:56
m:0
n:64
m:5
n:32
m:10
n:40
m:-5
n:80
m:-5
n:48
m:0
n:56
m:0
n:64
m:5
n:64
m:0
n:56
m:-5
n:64
m:-5
n:64
m:-10
n:64
m:-10
n:56
m:-10
n:64
m:-10
n:56
m:5
n:40
m:0
n:40
m:10
n:40
m:-5
n:80
m:0
n:40
m:10
n:40
m:-5
n:80
m:-5
n:80
m:-5
n:80
m:0
n:64
m:15
n:16
m:5
n:40
m:5
n:40
m:0
n:64
m:0
n:48
m:5
n:40
m:10
n:32
m:10
n:32
m:-5
n:32
m:0
n:24
m:-5
n:48
m:0
n:56
m:-10
n:56
m:-5
n:48
m:-10
n:64
m:5
n:56
m:20
n:-16
m:5
n:32
m:5
n:40
m:0
n:64
m:0
n:48
m:5
n:40
m:10
n:32
m:-15
n:72
m:5
n:40
m:-20
n:72
m:-15
n:72
m:-15
n:72
m:5
n:40
m:0
n:64
m:0
n:64
m:0
n:64
m:0
n:64
m:0
n:64
m:0
n:64
m:0
n:64
m:0
n:64
m:0
n:64
m:0
n:64
m:0
n:64
m:0
n:64
m:-45
n:-16
m:-45
n:-16
m:-45
n:-16
m:-45
n:-16
m:-45
n:-16
m:-45
n:-16
m:-45
n:-16
m:-45
n:-16
m:-45
n:-16
m:-45
n:-16
m:-45
n:-16
m:-45
n:-16
m:-45
n:-16
m:-45
n:-16
m:-45
n:-16
m:-45
n:-16
m:-45
n:-16
m:-45
n:-16
m:-45
n:-16
m:-45
n:-16
m:0
n:56
m:5
n:-16
m:-15
n:72
m:-5
n:72
m:-10
n:96
m:0
n:64
m:15
n:24
m:10
n:56
m:15
n:56
m:0
n:64
m:0
n:64
m:0
n:64
m:-5
n:32
m:0
n:64
m:-5
n:72
m:0
n:64
m:0
n:64
m:10
n:40
m:0
n:48
m:-5
n:72
m:0
n:64
m:-5
n:56
m:-20
n:104
m:-25
n:104
m:-30
n:104
m:-40
n:104
m:-40
n:104
m:0
n:56
m:0
n:56
m:0
n:56
m:0
n:56
m:5
n:56
m:15
n:32
m:5
n:56
m:15
n:32
m:5
n:48
m:-25
n:104
m:25
n:-16
m:5
n:40
m:-10
n:64
m:0
n:56
m:-15
n:104
m:0
n:24
m:-20
n:80
m:5
n:40
m:0
n:64
m:0
n:64
m:-5
n:72
m:-5
n:72
m:-5
n:72
m:-5
n:72
m:-5
n:72
m:-5
n:72
m:-10
n:88
m:-15
n:96
m:-10
n:80
m:-15
n:96
m:-20
n:104
m:-20
n:96
m:-10
n:88
m:-15
n:104
m:-15
n:104
m:-25
n:104
m:-10
n:88
m:-10
n:96
m:-15
n:104
m:-15
n:104
m:-25
n:104
m:-15
n:80
m:-10
n:72
m:-20
n:88
m:-10
n:88
m:-15
n:96
m:-10
n:80
m:-15
n:96
m:-20
n:104
m:-20
n:96
m:-10
n:88
m:-15
n:104
m:-15
n:104
m:-25
n:104
m:-10
n:88
m:-10
n:96
m:-15
n:104
m:-15
n:104
m:-25
n:104
m:-15
n:80
m:-10
n:72
m:-20
n:88
m:-10
n:56
m:-5
n:80
m:-30
n:88
m:0
n:64
m:5
n:64
m:0
n:64
m:-5
n:72
m:0
n:56
m:-5
n:72
m:-10
n:72
m:-10
n:72
m:-30
n:104
m:-10
n:80
m:5
n:32
m:10
n:40
m:-5
n:80
m:-5
n:48
m:0
n:56
m:0
n:64
m:5
n:32
m:10
n:40
m:-5
n:80
m:-5
n:48
m:0
n:56
m:0
n:64
m:5
n:32
m:10
n:40
m:-5
n:80
m:-5
n:48
m:0
n:56
m:0
n:64
m:5
n:64
m:0
n:56
m:-5
n:64
m:-5
n:64
m:-10
n:64
m:-10
n:56
m:-10
n:64
m:-10
n:56
m:5
n:40
m:0
n:40
m:10
n:40
m:-5
n:80
m:0
n:40
m:10
n:40
nal_unit_type:0
m:-5
n:80
m:-5
n:80
m:-5
n:80
m:0
n:64
m:15
n:16
m:5
n:40
m:5
n:40
m:0
n:64
m:0
n:48
m:5
n:40
m:10
n:32
m:10
n:32
m:-5
n:32
m:0
n:24
m:-5
n:48
m:0
n:56
m:-10
n:56
m:-5
n:48
m:-10
n:64
m:5
n:56
m:20
n:-16
m:5
n:32
m:5
n:40
m:0
n:64
m:0
n:48
m:5
n:40
m:10
n:32
m:-15
n:72
m:5
n:40
m:-20
n:72
m:-15
n:72
m:-15
n:72
m:5
n:40
m:0
n:64
m:0
n:64
m:0
n:64
m:0
n:64
m:0
n:64
m:0
n:64
m:0
n:64
m:0
n:64
m:0
n:64
m:0
n:64
m:0
n:64
m:0
n:64
m:-45
n:-16
m:-45
n:-16
m:-45
n:-16
m:-45
n:-16
m:-45
n:-16
m:-45
n:-16
m:-45
n:-16
m:-45
n:-16
m:-45
n:-16
m:-45
n:-16
m:-45
n:-16
m:-45
n:-16
m:-45
n:-16
m:-45
n:-16
m:-45
n:-16
m:-45
n:-16
m:-45
n:-16
m:-45
n:-16
m:-45
n:-16
m:-45
n:-16
m:0
n:56
m:5
n:-16
m:-15
n:72
m:-5
n:72
m:-10
n:96
m:0
n:64
m:15
n:24
m:10
n:56
m:15
n:56
m:0
n:64
m:0
n:64
m:0
n:64
m:-5
n:32
m:0
n:64
m:-5
n:72
m:0
n:64
m:0
n:64
m:10
n:40
m:0
n:48
m:-5
n:72
m:0
n:64
m:-5
n:56
m:-20
n:104
m:-25
n:104
m:-30
n:104
m:-40
n:104
m:-40
n:104
m:0
n:56
m:0
n:56
m:0
n:56
m:0
n:56
m:5
n:56
m:15
n:32
m:5
n:56
m:15
n:32
m:5
n:48
m:-25
n:104
m:25
n:-16
m:5
n:40
m:-10
nal_unit_type:1
n:64
m:0
n:56
m:-15
n:104
m:0
n:24
m:-20
n:80
m:5
n:40
m:0
n:64
m:0
n:64
m:-5
n:72
m:-5
n:72
m:-5
n:72
m:-5
n:72
m:-5
n:72
m:-5
n:72
m:-10
n:88
m:-15
n:96
m:-10
n:80
m:-15
n:96
m:-20
n:104
m:-20
n:96
m:-10
n:88
m:-15
n:104
m:-15
n:104
m:-25
n:104
m:-10
n:88
m:-10
n:96
m:-15
n:104
m:-15
n:104
m:-25
n:104
m:-15
n:80
m:-10
n:72
m:-20
n:88
m:-10
n:88
m:-15
n:96
m:-10
n:80
m:-15
n:96
m:-20
n:104
m:-20
n:96
m:-10
n:88
m:-15
n:104
m:-15
n:104
m:-25
n:104
m:-10
n:88
m:-10
n:96
m:-15
n:104
m:-15
n:104
m:-25
n:104
m:-15
n:80
m:-10
n:72
m:-20
n:88
m:-10
n:56
m:-5
n:80
m:-30
n:88
m:0
n:64
m:5
n:64
m:0
n:64
m:-5
n:72
m:0
n:56
m:-5
n:72
m:-10
n:72
m:-10
n:72
m:-30
n:104
m:-10
n:80
m:5
n:32
m:10
n:40
m:-5
n:80
m:-5
n:48
m:0
n:56
m:0
n:64
m:5
n:32
m:10
n:40
m:-5
n:80
m:-5
n:48
m:0
n:56
m:0
n:64
m:5
n:32
m:10
n:40
m:-5
n:80
m:-5
n:48
m:0
n:56
m:0
n:64
m:5
n:64
m:0
n:56
m:-5
n:64
m:-5
n:64
m:-10
n:64
m:-10
n:56
m:-10
n:64
m:-10
n:56
m:5
n:40
m:0
n:40
m:10
n:40
m:-5
n:80
m:0
n:40
m:10
n:40
m:-5
n:80
m:-5
n:80
m:-5
n:80
m:0
n:64
m:15
n:16
m:5
n:40
m:5
n:40
m:0
n:64
m:0
n:48
m:5
n:40
m:10
n:32
m:10
n:32
m:-5
n:32
m:0
n:24
m:-5
n:48
m:0
n:56
m:-10
n:56
m:-5
n:48
m:-10
n:64
m:5
n:56
m:20
n:-16
m:5
n:32
m:5
n:40
m:0
n:64
m:0
n:48
m:5
n:40
m:10
n:32
m:-15
n:72
m:5
n:40
m:-20
n:72
m:-15
n:72
m:-15
n:72
m:5
n:40
m:0
n:64
m:0
n:64
m:0
n:64
m:0
n:64
m:0
n:64
m:0
n:64
m:0
n:64
m:0
n:64
m:0
n:64
m:0
n:64
m:0
n:64
m:0
n:64
m:-45
n:-16
m:-45
n:-16
m:-45
n:-16
m:-45
n:-16
m:-45
n:-16
m:-45
n:-16
m:-45
n:-16
m:-45
n:-16
m:-45
n:-16
m:-45
n:-16
m:-45
n:-16
m:-45
n:-16
m:-45
n:-16
m:-45
n:-16
m:-45
n:-16
m:-45
n:-16
m:-45
n:-16
m:-45
n:-16
m:-45
n:-16
m:-45
n:-16
m:0
n:56
m:10
n:56
m:-15
n:72
m:-5
n:72
m:-10
n:96
m:0
n:64
m:15
n:24
m:10
n:56
m:15
n:56
m:0
n:64
m:0
n:64
m:0
n:64
m:0
n:24
m:0
n:64
m:-5
n:72
m:0
n:64
m:0
n:64
m:0
n:64
m:0
n:48
m:-5
n:72
m:-15
n:96
m:-10
n:64
m:-20
n:104
m:-25
n:104
m:-30
n:104
m:-40
n:104
m:-40
n:104
m:0
n:56
m:0
n:56
m:0
n:56
m:0
n:56
m:-5
n:80
m:15
n:32
m:-5
n:80
m:15
n:32
m:5
n:48
m:-25
n:104
m:-10
n:80
m:-5
n:64
m:-20
n:96
m:0
n:56
m:-15
n:104
m:0
n:24
m:-15
n:72
m:5
n:40
m:0
n:64
m:0
n:64
m:-5
n:72
m:-5
n:72
m:-5
n:72
m:-5
n:72
m:-5
n:72
m:-5
n:72
m:-10
n:88
m:-15
n:96
m:-20
n:96
m:-15
n:96
m:-20
n:104
m:-25
n:104
m:-10
n:88
m:-15
n:104
m:-15
n:96
m:-25
n:96
m:-15
n:96
m:-15
n:104
m:-15
n:104
m:-20
n:104
m:-20
n:96
m:-15
n:80
m:-10
n:72
m:-15
n:80
m:-10
n:88
m:-15
n:96
m:-20
n:96
m:-15
n:96
m:-20
n:104
m:-25
n:104
m:-10
n:88
m:-15
n:104
m:-15
n:96
m:-25
n:96
m:-15
n:96
m:-15
n:104
m:-15
n:104
m:-20
n:104
m:-20
n:96
m:-15
n:80
m:-10
n:72
m:-15
n:80
m:-10
n:56
m:-5
n:80
m:-30
n:88
m:0
n:64
m:0
n:72
m:0
n:64
m:-5
n:72
m:0
n:56
m:-5
n:72
m:-10
n:72
m:-10
n:72
m:-30
n:104
m:0
n:56
nal_unit_type:0
m:5
n:32
m:10
n:40
m:-5
n:80
m:-5
n:48
m:0
n:56
m:0
n:64
m:5
n:32
m:10
n:40
m:-5
n:80
m:-5
n:48
m:0
n:56
m:0
n:64
m:5
n:32
m:10
n:40
m:-5
n:80
m:-5
n:48
m:0
n:56
m:0
n:64
m:5
n:64
m:0
n:56
m:-10
n:72
m:-10
n:72
m:-15
n:72
m:-10
n:56
m:-15
n:72
m:-10
n:56
m:5
n:40
m:0
n:40
m:10
n:40
m:-5
n:80
m:0
n:40
m:10
n:40
m:-5
n:80
m:-5
n:80
m:-5
n:80
m:0
n:64
m:15
n:16
m:15
n:16
m:5
n:40
m:0
n:64
m:0
n:48
m:5
n:40
m:10
n:32
m:10
n:32
m:-5
n:32
m:0
n:24
m:-5
n:48
m:0
n:56
m:-10
n:56
m:-5
n:48
m:-5
n:56
m:5
n:56
m:15
n:0
m:5
n:32
m:5
n:40
m:0
n:64
m:5
n:40
m:-5
n:56
m:10
n:32
m:-15
n:72
m:5
n:40
m:-20
n:72
m:-10
n:64
m:-15
n:72
m:5
n:40
m:0
n:64
m:0
n:64
m:0
n:64
m:0
n:64
m:0
n:64
m:0
n:64
m:0
n:64
m:0
n:64
m:0
n:64
m:0
n:64
m:0
n:64
m:0
n:64
m:-45
n:-16
m:-45
n:-16
m:-45
n:-16
m:-45
n:-16
m:-45
n:-16
m:-45
n:-16
m:-45
n:-16
m:-45
n:-16
m:-45
n:-16
m:-45
n:-16
m:-45
n:-16
m:-45
n:-16
m:-45
n:-16
m:-45
n:-16
m:-45
n:-16
m:-45
n:-16
m:-45
n:-16
m:-45
n:-16
m:-45
n:-16
m:-45
n:-16
m:0
n:56
m:5
n:-16
m:-15
n:72
m:-5
n:72
m:-10
n:96
m:0
n:64
m:15
n:24
m:10
n:56
m:15
n:56
m:0
n:64
m:0
n:64
m:0
n:64
m:-5
n:32
m:0
n:64
m:-5
n:72
m:0
n:64
m:0
n:64
m:10
n:40
m:0
n:48
m:-5
n:72
m:0
n:64
m:-5
n:56
m:-20
n:104
m:-25
n:104
m:-30
n:104
m:-40
n:104
m:-40
n:104
m:0
n:56
m:0
n:56
m:0
n:56
m:0
n:56
m:5
n:56
m:15
n:32
m:5
n:56
m:15
n:32
m:5
n:48
m:-25
n:104
m:25
n:-16
m:5
n:40
m:-10
n:64
m:0
n:56
m:-15
n:104
m:0
n:24
m:-20
n:80
m:5
n:40
m:0
n:64
m:0
n:64
m:-5
n:72
m:-5
n:72
m:-5
n:72
m:-5
n:72
m:-5
n:72
m:-5
n:72
m:-10
n:88
m:-15
n:96
nal_unit_type:1
m:-10
n:80
m:-15
n:96
m:-20
n:104
m:-20
n:96
m:-10
n:88
m:-15
n:104
m:-15
n:104
m:-25
n:104
m:-10
n:88
m:-10
n:96
m:-15
n:104
m:-15
n:104
m:-25
n:104
m:-15
n:80
m:-10
n:72
m:-20
n:88
m:-10
n:88
m:-15
n:96
m:-10
n:80
m:-15
n:96
m:-20
n:104
m:-20
n:96
m:-10
n:88
m:-15
n:104
m:-15
n:104
m:-25
n:104
m:-10
n:88
m:-10
n:96
m:-15
n:104
m:-15
n:104
m:-25
n:104
m:-15
n:80
m:-10
n:72
m:-20
n:88
m:-10
n:56
m:-5
n:80
m:-30
n:88
m:0
n:64
m:5
n:64
m:0
n:64
m:-5
n:72
m:0
n:56
m:-5
n:72
m:-10
n:72
m:-10
n:72
m:-30
n:104
m:-10
n:80
m:5
n:32
m:10
n:40
m:-5
n:80
m:-5
n:48
m:0
n:56
m:0
n:64
m:5
n:32
m:10
n:40
m:-5
n:80
m:-5
n:48
m:0
n:56
m:0
n:64
m:5
n:32
m:10
n:40
m:-5
n:80
m:-5
n:48
m:0
n:56
m:0
n:64
m:5
n:64
m:0
n:56
m:-5
n:64
m:-5
n:64
m:-10
n:64
m:-10
n:56
m:-10
n:64
m:-10
n:56
m:5
n:40
m:0
n:40
m:10
n:40
m:-5
n:80
m:0
n:40
m:10
n:40
m:-5
n:80
m:-5
n:80
m:-5
n:80
m:0
n:64
m:15
n:16
m:5
n:40
m:5
n:40
m:0
n:64
m:0
n:48
m:5
n:40
m:10
n:32
m:10
n:32
m:-5
n:32
m:0
n:24
m:-5
n:48
m:0
n:56
m:-10
n:56
m:-5
n:48
m:-10
n:64
m:5
n:56
m:20
n:-16
m:5
n:32
m:5
n:40
m:0
n:64
m:0
n:48
m:5
n:40
m:10
n:32
m:-15
n:72
m:5
n:40
m:-20
n:72
m:-15
n:72
m:-15
n:72
m:5
n:40
m:0
n:64
m:0
n:64
m:0
n:64
m:0
n:64
m:0
n:64
m:0
n:64
m:0
n:64
m:0
n:64
m:0
n:64
m:0
n:64
m:0
n:64
m:0
n:64
m:-45
n:-16
m:-45
n:-16
m:-45
n:-16
m:-45
n:-16
m:-45
n:-16
m:-45
n:-16
m:-45
n:-16
m:-45
n:-16
m:-45
n:-16
m:-45
n:-16
m:-45
n:-16
m:-45
n:-16
m:-45
n:-16
m:-45
n:-16
m:-45
n:-16
m:-45
n:-16
m:-45
n:-16
m:-45
n:-16
m:-45
n:-16
m:-45
n:-16
m:0
n:56
m:10
n:56
m:-15
n:72
m:-5
n:72
m:-10
n:96
m:0
n:64
m:15
n:24
m:10
n:56
m:15
n:56
m:0
n:64
m:0
n:64
m:0
n:64
m:0
n:24
m:0
n:64
m:-5
n:72
m:0
n:64
m:0
n:64
m:0
n:64
m:0
n:48
m:-5
n:72
m:-15
n:96
m:-10
n:64
m:-20
n:104
m:-25
n:104
m:-30
n:104
m:-40
n:104
m:-40
n:104
m:0
n:56
m:0
n:56
m:0
n:56
m:0
n:56
m:-5
n:80
m:15
n:32
m:-5
n:80
m:15
n:32
m:5
n:48
m:-25
n:104
m:-10
n:80
m:-5
n:64
m:-20
n:96
m:0
n:56
m:-15
n:104
m:0
n:24
m:-15
n:72
m:5
n:40
m:0
n:64
m:0
n:64
m:-5
n:72
m:-5
n:72
m:-5
n:72
m:-5
n:72
m:-5
n:72
m:-5
n:72
m:-10
n:88
m:-15
n:96
m:-20
n:96
m:-15
n:96
m:-20
n:104
m:-25
n:104
m:-10
n:88
m:-15
n:104
m:-15
n:96
m:-25
nal_unit_type:1
n:96
m:-15
n:96
m:-15
n:104
m:-15
n:104
m:-20
n:104
m:-20
n:96
m:-15
n:80
m:-10
n:72
m:-15
n:80
m:-10
n:88
m:-15
n:96
m:-20
n:96
m:-15
n:96
m:-20
n:104
m:-25
n:104
m:-10
n:88
m:-15
n:104
m:-15
n:96
m:-25
n:96
m:-15
n:96
m:-15
n:104
m:-15
n:104
m:-20
n:104
m:-20
n:96
m:-15
n:80
m:-10
n:72
m:-15
n:80
m:-10
n:56
m:-5
n:80
m:-30
n:88
m:0
n:64
m:0
n:72
m:0
n:64
m:-5
n:72
m:0
n:56
m:-5
n:72
m:-10
n:72
m:-10
n:72
m:-30
n:104
m:0
n:56
m:5
n:32
m:10
n:40
m:-5
n:80
m:-5
n:48
m:0
n:56
m:0
n:64
m:5
n:32
m:10
n:40
m:-5
n:80
m:-5
n:48
m:0
n:56
m:0
n:64
m:5
n:32
m:10
n:40
m:-5
n:80
m:-5
n:48
m:0
n:56
m:0
n:64
m:5
n:64
m:0
n:56
m:-10
n:72
m:-10
n:72
m:-15
n:72
m:-10
n:56
m:-15
n:72
m:-10
n:56
m:5
n:40
m:0
n:40
m:10
n:40
m:-5
n:80
m:0
n:40
m:10
n:40
m:-5
n:80
m:-5
n:80
m:-5
n:80
m:0
n:64
m:15
n:16
m:15
n:16
m:5
n:40
m:0
n:64
m:0
n:48
m:5
n:40
m:10
n:32
m:10
n:32
m:-5
n:32
m:0
n:24
m:-5
n:48
m:0
n:56
m:-10
n:56
m:-5
n:48
m:-5
n:56
m:5
n:56
m:15
n:0
m:5
n:32
m:5
n:40
m:0
n:64
m:5
n:40
m:-5
n:56
m:10
n:32
m:-15
n:72
m:5
n:40
m:-20
n:72
m:-10
n:64
m:-15
n:72
m:5
n:40
m:0
n:64
m:0
n:64
m:0
n:64
m:0
n:64
m:0
n:64
m:0
n:64
m:0
n:64
m:0
n:64
m:0
n:64
m:0
n:64
m:0
n:64
m:0
n:64
m:-45
n:-16
m:-45
n:-16
m:-45
n:-16
m:-45
n:-16
m:-45
n:-16
m:-45
n:-16
m:-45
n:-16
m:-45
n:-16
m:-45
n:-16
m:-45
n:-16
m:-45
n:-16
m:-45
n:-16
m:-45
n:-16
m:-45
n:-16
m:-45
n:-16
m:-45
n:-16
m:-45
n:-16
m:-45
n:-16
m:-45
n:-16
m:-45
n:-16
m:0
n:56
m:5
n:-16
m:-15
n:72
m:-5
n:72
m:-10
n:96
m:0
n:64
m:15
n:24
m:10
n:56
m:15
n:56
m:0
n:64
m:0
n:64
m:0
n:64
m:-5
n:32
m:0
n:64
m:-5
n:72
m:0
n:64
m:0
n:64
m:10
n:40
m:0
n:48
m:-5
n:72
m:0
n:64
m:-5
n:56
m:-20
n:104
m:-25
n:104
m:-30
n:104
m:-40
n:104
m:-40
n:104
m:0
n:56
m:0
n:56
m:0
n:56
m:0
n:56
m:5
n:56
m:15
n:32
m:5
n:56
m:15
n:32
m:5
n:48
m:-25
n:104
m:25
n:-16
m:5
n:40
m:-10
n:64
m:0
n:56
m:-15
n:104
m:0
n:24
m:-20
n:80
m:5
n:40
m:0
n:64
m:0
n:64
m:-5
n:72
m:-5
n:72
m:-5
n:72
m:-5
n:72
m:-5
n:72
m:-5
n:72
m:-10
n:88
m:-15
n:96
m:-10
n:80
m:-15
n:96
m:-20
n:104
m:-20
n:96
m:-10
n:88
m:-15
n:104
m:-15
n:104
m:-25
n:104
m:-10
n:88
m:-10
n:96
m:-15
n:104
m:-15
n:104
m:-25
n:104
m:-15
n:80
m:-10
n:72
m:-20
n:88
m:-10
n:88
m:-15
n:96
m:-10
n:80
m:-15
n:96
m:-20
n:104
m:-20
n:96
m:-10
n:88
m:-15
n:104
m:-15
n:104
m:-25
n:104
m:-10
n:88
m:-10
n:96
m:-15
n:104
m:-15
n:104
m:-25
n:104
m:-15
n:80
m:-10
n:72
m:-20
n:88
m:-10
n:56
m:-5
n:80
m:-30
n:88
m:0
n:64
m:5
n:64
m:0
n:64
m:-5
n:72
m:0
n:56
m:-5
n:72
m:-10
n:72
m:-10
n:72
m:-30
n:104
m:-10
n:80
m:5
n:32
m:10
n:40
m:-5
n:80
m:-5
n:48
m:0
n:56
m:0
n:64
m:5
n:32
m:10
n:40
m:-5
n:80
m:-5
n:48
m:0
n:56
m:0
n:64
m:5
n:32
m:10
n:40
m:-5
n:80
m:-5
n:48
m:0
n:56
m:0
n:64
m:5
n:64
m:0
n:56
m:-5
n:64
m:-5
n:64
m:-10
n:64
m:-10
n:56
m:-10
n:64
m:-10
n:56
m:5
n:40
m:0
n:40
m:10
n:40
m:-5
n:80
m:0
n:40
m:10
n:40
m:-5
n:80
m:-5
n:80
m:-5
n:80
m:0
n:64
m:15
n:16
m:5
n:40
m:5
n:40
m:0
n:64
m:0
n:48
m:5
n:40
m:10
n:32
m:10
n:32
m:-5
n:32
m:0
n:24
m:-5
n:48
m:0
n:56
m:-10
n:56
m:-5
n:48
m:-10
n:64
m:5
n:56
m:20
n:-16
m:5
n:32
m:5
n:40
m:0
n:64
m:0
n:48
m:5
n:40
m:10
n:32
m:-15
nal_unit_type:0
n:72
m:5
n:40
m:-20
n:72
m:-15
n:72
m:-15
n:72
m:5
n:40
m:0
n:64
m:0
n:64
m:0
n:64
m:0
n:64
m:0
n:64
m:0
n:64
m:0
n:64
m:0
n:64
m:0
n:64
m:0
n:64
m:0
n:64
m:0
n:64
m:-45
n:-16
m:-45
n:-16
m:-45
n:-16
m:-45
n:-16
m:-45
n:-16
m:-45
n:-16
m:-45
n:-16
m:-45
n:-16
m:-45
n:-16
m:-45
n:-16
m:-45
n:-16
m:-45
n:-16
m:-45
n:-16
m:-45
n:-16
m:-45
n:-16
m:-45
n:-16
m:-45
n:-16
m:-45
n:-16
m:-45
n:-16
m:-45
n:-16
m:0
n:56
m:5
n:-16
m:-15
n:72
m:-5
n:72
m:-10
n:96
m:0
n:64
m:15
n:24
m:10
n:56
m:15
n:56
m:0
n:64
m:0
n:64
m:0
n:64
m:-5
n:32
m:0
n:64
m:-5
n:72
m:0
n:64
m:0
n:64
m:10
n:40
m:0
n:48
m:-5
n:72
m:0
n:64
m:-5
n:56
m:-20
n:104
m:-25
n:104
m:-30
n:104
m:-40
n:104
m:-40
n:104
m:0
n:56
m:0
n:56
m:0
n:56
m:0
n:56
m:5
n:56
m:15
n:32
m:5
n:56
m:15
n:32
m:5
n:48
m:-25
n:104
m:25
n:-16
m:5
n:40
m:-10
n:64
m:0
n:56
m:-15
n:104
m:0
n:24
m:-20
n:80
m:5
n:40
m:0
n:64
m:0
n:64
m:-5
n:72
m:-5
n:72
m:-5
n:72
m:-5
n:72
m:-5
n:72
m:-5
n:72
m:-10
n:88
m:-15
n:96
m:-10
n:80
m:-15
n:96
m:-20
n:104
m:-20
n:96
m:-10
n:88
m:-15
n:104
m:-15
n:104
m:-25
n:104
m:-10
n:88
m:-10
n:96
m:-15
n:104
m:-15
n:104
m:-25
n:104
m:-15
n:80
m:-10
n:72
m:-20
n:88
m:-10
n:88
m:-15
n:96
m:-10
n:80
m:-15
n:96
nal_unit_type:0
m:-20
n:104
m:-20
n:96
m:-10
n:88
m:-15
n:104
m:-15
n:104
m:-25
n:104
m:-10
n:88
m:-10
n:96
m:-15
n:104
m:-15
n:104
m:-25
n:104
m:-15
n:80
m:-10
n:72
m:-20
n:88
m:-10
n:56
m:-5
n:80
m:-30
n:88
m:0
n:64
m:5
n:64
m:0
n:64
m:-5
n:72
m:0
n:56
m:-5
n:72
m:-10
n:72
m:-10
n:72
m:-30
n:104
m:-10
n:80
m:5
n:32
m:10
n:40
m:-5
n:80
m:-5
n:48
m:0
n:56
m:0
n:64
m:5
n:32
m:10
n:40
m:-5
n:80
m:-5
n:48
m:0
n:56
m:0
n:64
m:5
n:32
m:10
n:40
m:-5
n:80
m:-5
n:48
m:0
n:56
m:0
n:64
m:5
n:64
m:0
n:56
m:-5
n:64
m:-5
n:64
m:-10
n:64
m:-10
n:56
m:-10
n:64
m:-10
n:56
m:5
n:40
m:0
n:40
m:10
n:40
m:-5
n:80
m:0
n:40
m:10
n:40
m:-5
n:80
m:-5
n:80
m:-5
n:80
m:0
n:64
m:15
n:16
m:5
n:40
m:5
n:40
m:0
n:64
m:0
n:48
m:5
n:40
m:10
n:32
m:10
n:32
m:-5
n:32
m:0
n:24
m:-5
n:48
m:0
n:56
m:-10
n:56
m:-5
n:48
m:-10
n:64
m:5
n:56
m:20
n:-16
m:5
n:32
m:5
n:40
m:0
n:64
m:0
n:48
m:5
n:40
m:10
n:32
m:-15
n:72
m:5
n:40
m:-20
n:72
m:-15
n:72
m:-15
n:72
m:5
n:40
m:0
n:64
m:0
n:64
m:0
n:64
m:0
n:64
m:0
n:64
m:0
n:64
m:0
n:64
m:0
n:64
m:0
n:64
m:0
n:64
m:0
n:64
m:0
n:64
m:-45
n:-16
m:-45
n:-16
m:-45
n:-16
m:-45
n:-16
m:-45
n:-16
m:-45
n:-16
m:-45
n:-16
m:-45
n:-16
m:-45
n:-16
m:-45
n:-16
m:-45
n:-16
m:-45
n:-16
m:-45
n:-16
m:-45
n:-16
m:-45
n:-16
m:-45
n:-16
m:-45
n:-16
m:-45
n:-16
m:-45
n:-16
m:-45
n:-16
m:0
n:56
m:5
n:-16
m:-15
n:72
m:-5
n:72
m:-10
n:96
m:0
n:64
m:15
n:24
m:10
n:56
m:15
n:56
m:0
n:64
m:0
n:64
m:0
n:64
m:-5
n:32
m:0
n:64
m:-5
n:72
m:0
n:64
m:0
n:64
m:10
n:40
m:0
n:48
m:-5
n:72
m:0
n:64
m:-5
n:56
m:-20
n:104
m:-25
n:104
m:-30
n:104
m:-40
n:104
m:-40
n:104
m:0
n:56
m:0
n:56
m:0
n:56
m:0
n:56
m:5
n:56
m:15
n:32
m:5
n:56
m:15
n:32
m:5
n:48
m:-25
n:104
m:25
n:-16
m:5
n:40
m:-10
n:64
m:0
n:56
m:-15
n:104
m:0
n:24
m:-20
n:80
m:5
n:40
m:0
n:64
m:0
n:64
m:-5
n:72
m:-5
n:72
m:-5
n:72
m:-5
n:72
m:-5
n:72
m:-5
n:72
m:-10
n:88
m:-15
n:96
m:-10
n:80
m:-15
n:96
m:-20
n:104
m:-20
n:96
m:-10
n:88
m:-15
n:104
m:-15
n:104
m:-25
n:104
m:-10
n:88
m:-10
n:96
m:-15
n:104
m:-15
n:104
m:-25
n:104
m:-15
n:80
m:-10
n:72
m:-20
n:88
m:-10
n:88
m:-15
n:96
m:-10
n:80
m:-15
n:96
m:-20
n:104
m:-20
n:96
m:-10
n:88
m:-15
n:104
m:-15
n:104
m:-25
n:104
m:-10
n:88
m:-10
n:96
m:-15
n:104
m:-15
n:104
m:-25
n:104
m:-15
n:80
m:-10
n:72
m:-20
n:88
m:-10
n:56
m:-5
n:80
m:-30
n:88
m:0
n:64
m:5
n:64
m:0
n:64
m:-5
n:72
m:0
n:56
m:-5
n:72
m:-10
n:72
m:-10
n:72
m:-30
n:104
m:-10
n:80
m:5
n:32
m:10
n:40
m:-5
n:80
m:-5
n:48
m:0
n:56
m:0
n:64
m:5
n:32
m:10
n:40
m:-5
n:80
m:-5
n:48
m:0
n:56
m:0
n:64
m:5
n:32
m:10
n:40
m:-5
n:80
m:-5
n:48
m:0
n:56
m:0
n:64
m:5
n:64
m:0
n:56
m:-5
n:64
m:-5
n:64
m:-10
n:64
m:-10
n:56
m:-10
n:64
m:-10
n:56
m:5
n:40
m:0
n:40
m:10
n:40
m:-5
n:80
m:0
n:40
m:10
n:40
m:-5
n:80
m:-5
n:80
m:-5
n:80
m:0
n:64
m:15
n:16
m:5
n:40
m:5
n:40
m:0
n:64
m:0
n:48
m:5
n:40
m:10
n:32
m:10
n:32
m:-5
n:32
m:0
n:24
m:-5
n:48
m:0
n:56
m:-10
n:56
m:-5
n:48
m:-10
n:64
m:5
n:56
m:20
n:-16
m:5
n:32
m:5
n:40
m:0
n:64
m:0
n:48
m:5
n:40
m:10
n:32
m:-15
n:72
m:5
n:40
m:-20
n:72
m:-15
n:72
m:-15
n:72
m:5
n:40
m:0
n:64
m:0
n:64
m:0
n:64
m:0
n:64
m:0
n:64
m:0
n:64
m:0
n:64
m:0
n:64
m:0
n:64
m:0
n:64
m:0
n:64
m:0
n:64
m:-45
n:-16
m:-45
n:-16
m:-45
n:-16
m:-45
n:-16
m:-45
n:-16
m:-45
n:-16
m:-45
n:-16
m:-45
n:-16
m:-45
n:-16
m:-45
n:-16
m:-45
n:-16
m:-45
n:-16
m:-45
n:-16
m:-45
n:-16
m:-45
n:-16
m:-45
n:-16
m:-45
n:-16
m:-45
n:-16
m:-45
n:-16
m:-45
n:-16
Output #0, rawvideo, to 'output.yuv':
  Metadata:
    encoder         : Lavf58.76.100
  Stream #0:0: Video: rawvideo (I420 / 0x30323449), yuv420p(tv, bt709, progressive), 714x624, q=2-31, 160392 kb/s, 30 fps, 30 tbn
    Metadata:
      encoder         : Lavc58.134.100 rawvideo
frame=    1 fps=0.0 q=-0.0 size=     512kB time=00:00:00.03 bitrate=125830.4kbits/s speed=4.06x    frame=   11 fps=0.0 q=-0.0 Lsize=    7179kB time=00:00:00.36 bitrate=160392.8kbits/s speed=23.9x    
video:7179kB audio:0kB subtitle:0kB other streams:0kB global headers:0kB muxing overhead: 0.000000%
